<?xml version="1.0" encoding="UTF-8"?>
<svg version="1.1" xmlns="http://www.w3.org/2000/svg" width="380" height="382">
<path d="M0 0 C125.4 0 250.8 0 380 0 C380 126.06 380 252.12 380 382 C254.6 382 129.2 382 0 382 C0 255.94 0 129.88 0 0 Z " fill="#3A3E41" transform="translate(0,0)"/>
<path d="M0 0 C17.49 0 34.98 0 53 0 C53.33 31.02 53.66 62.04 54 94 C59.1046875 88.88371094 64.209375 83.76742187 69.46875 78.49609375 C72.71326439 75.24646688 75.95792668 71.9969904 79.203125 68.74804688 C84.34845989 63.59674563 89.49325292 58.44491146 94.63476562 53.28979492 C98.78225754 49.13139862 102.93222237 44.97548483 107.08387756 40.82124519 C108.66349198 39.23979011 110.24222934 37.65745847 111.8200531 36.07421684 C114.03849221 33.84846699 116.26009418 31.62591909 118.48242188 29.40405273 C119.12691284 28.75596649 119.77140381 28.10788025 120.4354248 27.44015503 C124.22700177 23.65702814 128.1309316 20.09303903 132.23922634 16.65492439 C134.074601 14.92988365 135.41531138 13.15500477 136.81665039 11.06811523 C141.05827609 5.15537274 145.29976007 0.80591672 152.61248779 -0.7868042 C162.34070878 -2.00044572 172.25015651 -1.44275598 182.01574707 -1.02996826 C186.07767259 -0.87487433 190.1410284 -0.80767377 194.20507812 -0.73242188 C202.1406154 -0.57284465 210.06922981 -0.31784199 218 0 C216.28267704 3.61476124 214.17323022 6.3256671 211.5625 9.375 C207.82744188 13.77491618 204.21854313 18.2475726 200.6875 22.8125 C196.21182732 28.5742579 191.51066497 34.10388289 186.70703125 39.59375 C179.90941026 47.36710606 173.46156163 55.41204806 167.01953125 63.48046875 C161.588338 70.25632881 156.06207517 76.94677615 150.4375 83.5625 C146.52909133 88.16058823 142.70768248 92.81455101 138.95703125 97.54296875 C136.84678855 100.1923553 134.70853908 102.81703432 132.5625 105.4375 C131.82128906 106.34628906 131.08007812 107.25507813 130.31640625 108.19140625 C128.71698245 110.13067389 127.09848609 112.05431288 125.46484375 113.96484375 C124.65144531 114.92519531 123.83804688 115.88554687 123 116.875 C122.2575 117.73867187 121.515 118.60234375 120.75 119.4921875 C118.29788768 122.92870332 118.29788768 122.92870332 118 127 C119.81717436 129.67738955 122.07453345 131.86153982 124.375 134.125 C125.68360524 135.46489833 126.98959257 136.80735835 128.29296875 138.15234375 C129.25275635 139.13630127 129.25275635 139.13630127 130.23193359 140.14013672 C132.52326031 142.55042765 134.61659711 145.08656711 136.6875 147.6875 C139.81399327 151.60286726 143.08723434 155.33395917 146.5 159 C149.93221963 162.68728911 153.22559193 166.44112399 156.375 170.375 C160.42601724 175.41336194 164.77223557 180.1030476 169.20043945 184.8059082 C173.24254193 189.12209157 176.99588108 193.60494499 180.69140625 198.22265625 C183.35279458 201.42442799 186.15462246 204.46234918 189 207.5 C192.64888449 211.39576281 196.15698438 215.33334284 199.5 219.5 C203.83412829 224.89795977 208.49206438 229.93777696 213.2109375 234.99609375 C215.98391453 237.97032028 218.67756506 241.00544587 221.33203125 244.0859375 C222.60309144 245.54453116 223.89629754 246.98385769 225.19921875 248.4140625 C225.93785156 249.22617187 226.67648437 250.03828125 227.4375 250.875 C228.11683594 251.61492187 228.79617188 252.35484375 229.49609375 253.1171875 C231 255 231 255 231 257 C222.1593985 257.23247678 213.31986036 257.40976347 204.476861 257.51812172 C200.36978197 257.57015067 196.26480478 257.64061595 192.15893555 257.75439453 C188.19056769 257.863665 184.22421054 257.92296354 180.25445366 257.94877243 C178.74601021 257.9671438 177.23766777 258.00302394 175.73008919 258.05730057 C163.94279669 258.46449976 163.94279669 258.46449976 159.09649658 254.81130981 C156.82529701 252.3109345 154.88685488 249.79708809 153 247 C152.18789062 246.02289063 151.37578125 245.04578125 150.5390625 244.0390625 C149.90742188 243.24242187 149.27578125 242.44578125 148.625 241.625 C144.94298465 237.07059077 141.07099643 232.76252435 137.08422852 228.47875977 C134.1131325 225.26736593 131.30053412 221.97390237 128.5625 218.5625 C124.71889943 213.78378372 120.63039836 209.30842313 116.44165039 204.83618164 C112.5400333 200.64670474 108.92675203 196.27827064 105.34375 191.8125 C102.18695963 188.02435156 98.82587079 184.44788396 95.45458984 180.85131836 C91.42061662 176.52219212 87.67824453 172.00334836 83.98046875 167.3828125 C82.22309926 165.26842317 80.41378163 163.34468087 78.4375 161.4375 C77.2309375 160.2309375 77.2309375 160.2309375 76 159 C76 158.34 76 157.68 76 157 C71.4564437 160.88267538 66.94539374 164.77972431 62.83998108 169.13049316 C61 171 61 171 59.16477966 172.47058105 C55.07942846 176.13829214 53.59895192 179.32310769 53.19421482 184.83609772 C53.04944794 188.8410531 53.06161238 192.8369433 53.09765625 196.84375 C53.08826276 198.58111435 53.07579978 200.31846456 53.06040955 202.05578613 C53.02827709 206.60656556 53.03759165 211.15633396 53.05578613 215.70715332 C53.06894005 221.17894547 53.03017936 226.65059071 53.00020599 232.12228394 C52.96054666 240.41541782 52.98648559 248.7060153 53 257 C35.51 257 18.02 257 0 257 C0 172.19 0 87.38 0 0 Z " fill="#FBFBFA" transform="translate(46,73)"/>
<path d="M0 0 C0 84.48 0 168.96 0 256 C-17.49 256 -34.98 256 -53 256 C-53.33 212.44 -53.66 168.88 -54 124 C-57.07365696 124.63171522 -57.07365696 124.63171522 -57.875 126.75 C-59.81905698 130.63811396 -63.02951433 133.25347256 -66.4375 135.875 C-68.57313245 137.64601227 -70.12575479 139.25920208 -71.875 141.375 C-74.447538 144.47659466 -77.23757456 146.97052848 -80.33984375 149.52734375 C-81.95880187 150.96345484 -83.27555797 152.4371399 -84.625 154.125 C-86.89905027 156.87779769 -89.21957091 158.78991534 -92 161 C-93.35386936 162.65002828 -94.68678142 164.3174387 -96 166 C-97.64960315 167.68355725 -99.31892493 169.34786739 -101 171 C-101.90878906 171.89460937 -102.81757813 172.78921875 -103.75390625 173.7109375 C-104.68074219 174.59007812 -105.60757813 175.46921875 -106.5625 176.375 C-107.49191406 177.26960937 -108.42132813 178.16421875 -109.37890625 179.0859375 C-112 181 -112 181 -114.33984375 180.7890625 C-114.88769531 180.52867187 -115.43554688 180.26828125 -116 180 C-116 179.34 -116 178.68 -116 178 C-116.66 178 -117.32 178 -118 178 C-119.0076408 176.3379417 -120.00604235 174.67027721 -121 173 C-122.50764531 171.34741675 -124.07044238 169.74426763 -125.67089844 168.18139648 C-126.13136063 167.72867371 -126.59182281 167.27595093 -127.0662384 166.80950928 C-128.05934607 165.833963 -129.05466139 164.86065997 -130.05196381 163.88940239 C-131.62882732 162.35212982 -133.19791001 160.8073029 -134.76495361 159.26002502 C-139.21855395 154.86433647 -143.68190533 150.47874268 -148.15966797 146.10766602 C-150.90344164 143.42820046 -153.63499637 140.73678605 -156.35913849 138.03737068 C-157.39918046 137.01161062 -158.44387927 135.99055046 -159.49321747 134.97430229 C-160.9556032 133.55743918 -162.40158408 132.12370255 -163.84667969 130.68920898 C-164.67480164 129.8782225 -165.50292358 129.06723602 -166.35614014 128.23167419 C-168 126 -168 126 -167.88873291 123.88172913 C-166.50933022 120.96109662 -164.51658964 118.70976803 -162.4375 116.25 C-161.61121094 115.26515625 -160.78492188 114.2803125 -159.93359375 113.265625 C-159.29550781 112.51796875 -158.65742188 111.7703125 -158 111 C-155.11950883 112.30682801 -153.0391257 113.70501003 -150.80078125 115.93359375 C-150.23166016 116.50013672 -149.66253906 117.06667969 -149.07617188 117.65039062 C-148.49416016 118.24013672 -147.91214844 118.82988281 -147.3125 119.4375 C-146.42208008 120.31631836 -146.42208008 120.31631836 -145.51367188 121.21289062 C-144.94841797 121.78072266 -144.38316406 122.34855469 -143.80078125 122.93359375 C-143.28684814 123.44978271 -142.77291504 123.96597168 -142.2434082 124.49780273 C-141 126 -141 126 -140 129 C-137.99983534 130.20882096 -137.99983534 130.20882096 -136 131 C-136 131.99 -136 132.98 -136 134 C-135.17435547 134.07347656 -135.17435547 134.07347656 -134.33203125 134.1484375 C-130.90948995 135.3982097 -129.01082001 137.93902722 -126.6875 140.625 C-125.71173652 141.71555919 -124.73517507 142.80540494 -123.7578125 143.89453125 C-122.83825173 144.92942995 -121.91895929 145.96456717 -121 147 C-119.70295247 148.45145795 -118.39353906 149.8921488 -117.0625 151.3125 C-116.55847656 151.86550781 -116.05445313 152.41851562 -115.53515625 152.98828125 C-114.01707259 154.21980668 -114.01707259 154.21980668 -111.94140625 153.796875 C-109.36119431 152.73779404 -107.92209123 150.98616094 -106 149 C-105.34 149 -104.68 149 -104 149 C-103.86658203 148.11248047 -103.86658203 148.11248047 -103.73046875 147.20703125 C-102.8087729 144.42222828 -101.59074895 143.50575964 -99.3125 141.6875 C-95.84900364 138.81472564 -93.00537994 135.8168935 -90.2265625 132.28515625 C-89.82179688 131.86105469 -89.41703125 131.43695313 -89 131 C-88.34 131 -87.68 131 -87 131 C-87 130.34 -87 129.68 -87 129 C-85.6015625 127.58984375 -85.6015625 127.58984375 -83.625 125.9375 C-82.89667969 125.31617188 -82.16835937 124.69484375 -81.41796875 124.0546875 C-80.62003906 123.37664062 -79.82210937 122.69859375 -79 122 C-73.51428692 117.23945895 -68.39596501 112.46595841 -63.71875 106.90625 C-61.30458669 104.22872341 -58.58751994 101.97811189 -55.83984375 99.65234375 C-53.26839945 97.34295747 -51.20449011 94.65669321 -49 92 C-47.22145494 90.44280225 -45.4101821 88.95167287 -43.55078125 87.4921875 C-41.87404079 86.06990158 -41.87404079 86.06990158 -41.10546875 83.9453125 C-40 82 -40 82 -35 80 C-35 132.14 -35 184.28 -35 238 C-29.39 238 -23.78 238 -18 238 C-18.33 173.98 -18.66 109.96 -19 44 C-29.30597884 53.4538782 -29.30597884 53.4538782 -39.21875 63.26171875 C-40.42926576 64.49455487 -41.64021447 65.72696601 -42.8515625 66.95898438 C-44.69701389 68.84187037 -46.53903037 70.72776596 -48.37402344 72.62084961 C-50.18825784 74.48937827 -52.01480456 76.34510274 -53.84375 78.19921875 C-54.38962769 78.76887863 -54.93550537 79.33853851 -55.4979248 79.92546082 C-58.51830885 82.96641704 -60.64520969 84.71701905 -65 85 C-65 85.99 -65 86.98 -65 88 C-66.1875 89.375 -66.1875 89.375 -68 91 C-71.51788113 94.39902845 -71.51788113 94.39902845 -74.5 98.25 C-76.47132182 100.54987545 -78.0546488 100.68158365 -81 101 C-81 101.66 -81 102.32 -81 103 C-85.30232558 107.76744186 -85.30232558 107.76744186 -89 109 C-89.495 110.485 -89.495 110.485 -90 112 C-91.66215268 113.33895632 -93.32963607 114.67130142 -95 116 C-96.68732277 117.98260426 -98.35366057 119.9832342 -100 122 C-100.9075 122.886875 -101.815 123.77375 -102.75 124.6875 C-105.19748805 126.86759687 -105.19748805 126.86759687 -106 130 C-108.3125 132.25 -108.3125 132.25 -111 134 C-114.28769871 133.64793597 -115.92887956 132.44010915 -118.20703125 130.12109375 C-119.08210327 129.23925415 -119.08210327 129.23925415 -119.97485352 128.33959961 C-120.58127686 127.71190674 -121.1877002 127.08421387 -121.8125 126.4375 C-122.43761475 125.80142822 -123.06272949 125.16535645 -123.70678711 124.51000977 C-127.4748486 120.65149514 -131.12148885 116.71417474 -134.62109375 112.609375 C-137.40417281 109.36113542 -139.94187257 106.55311207 -143.75 104.5625 C-146 103 -146 103 -146.91796875 100.26953125 C-147.02959438 95.82045265 -145.47931492 94.40142224 -142.5625 91.125 C-141.71816406 90.15820312 -140.87382812 89.19140625 -140.00390625 88.1953125 C-139.01197266 87.10863281 -139.01197266 87.10863281 -138 86 C-134.16695887 86.56238086 -132.42544187 88.21162465 -129.7421875 90.9296875 C-128.95199219 91.72503906 -128.16179687 92.52039063 -127.34765625 93.33984375 C-126.53167969 94.17644531 -125.71570313 95.01304687 -124.875 95.875 C-124.05128906 96.70386719 -123.22757813 97.53273438 -122.37890625 98.38671875 C-116.30982143 104.53526786 -116.30982143 104.53526786 -114 108 C-110.14804223 106.43068387 -107.88256053 103.94959682 -105 101 C-103.84112392 100.01162523 -102.67404569 99.03280675 -101.5 98.0625 C-99.21294395 96.13681861 -97.24379146 94.20805098 -95.375 91.875 C-93.09433372 89.11419345 -90.81745314 87.18352619 -88 85 C-85.54475594 82.66167232 -83.31161157 80.42702327 -81.3125 77.6875 C-80.6628125 76.8521875 -80.6628125 76.8521875 -80 76 C-79.34 76 -78.68 76 -78 76 C-77.505 74.515 -77.505 74.515 -77 73 C-75.3603279 71.63360658 -73.68889872 70.3050581 -72 69 C-70.31793463 67.34887564 -68.65328043 65.67994624 -67 64 C-56.13804121 52.99385592 -56.13804121 52.99385592 -50.41796875 48.265625 C-48.33306884 46.4047226 -46.72802255 44.18882856 -45 42 C-43.33729713 40.66172696 -41.67083819 39.32810215 -40 38 C-39.195625 36.9171875 -39.195625 36.9171875 -38.375 35.8125 C-37 34 -37 34 -34 33 C-33.09345303 31.58981582 -32.18980359 30.1776395 -31.3046875 28.75390625 C-29.21761038 25.94822473 -26.57544781 23.84514356 -23.90234375 21.61328125 C-21.9870337 20.04767894 -21.9870337 20.04767894 -20.37890625 18.29296875 C-19 17 -19 17 -17 17 C-16.77054688 16.44441406 -16.54109375 15.88882813 -16.3046875 15.31640625 C-14.63977018 12.36043029 -12.54167129 10.31473006 -10.125 7.9375 C-9.26132812 7.08027344 -8.39765625 6.22304687 -7.5078125 5.33984375 C-1.78464107 0 -1.78464107 0 0 0 Z " fill="#107BDA" transform="translate(337,74)"/>
<path d="M0 0 C5.61 0 11.22 0 17 0 C17.33 39.6 17.66 79.2 18 120 C26.3840625 111.3375 34.768125 102.675 43.40625 93.75 C48.75900944 88.27454645 54.11459611 82.80242716 59.484375 77.34375 C67.99916089 68.68685297 76.5003149 60.01916159 84.91992188 51.26953125 C91.05370882 44.89543652 97.22949678 38.56565604 103.4579215 32.28395462 C106.75073621 28.96002303 110.01964571 25.61879929 113.2389679 22.22351074 C135.4514702 -1.15709352 135.4514702 -1.15709352 148.52217865 -1.77154541 C153.11772369 -1.58726872 157.52513424 -1.06556969 162 0 C160.18413436 3.85981351 157.72018557 6.86253001 154.9375 10.0625 C153.931578 11.23506522 152.92637879 12.40825086 151.921875 13.58203125 C151.42365234 14.16291504 150.92542969 14.74379883 150.41210938 15.34228516 C147.72761913 18.49368363 145.1256213 21.7119839 142.51171875 24.921875 C139.35389837 28.79180107 136.17706486 32.64586957 133 36.5 C127.65299921 42.98892675 122.31943614 49.48844916 117 56 C115.50014304 57.83345036 114.0001406 59.66678171 112.5 61.5 C111.75234375 62.41394531 111.0046875 63.32789063 110.234375 64.26953125 C108.78702949 66.03822795 107.33914699 67.80648543 105.890625 69.57421875 C102.55026661 73.65213803 99.21421003 77.73334922 95.89453125 81.828125 C95.34909668 82.50045166 94.80366211 83.17277832 94.24169922 83.86547852 C93.12588933 85.24231459 92.01161989 86.62040054 90.89892578 87.99975586 C88.28580718 91.23006452 85.65054449 94.42735645 82.91015625 97.55078125 C82.43827881 98.09420166 81.96640137 98.63762207 81.48022461 99.19750977 C80.20731664 100.6557014 78.92052012 102.10173604 77.6328125 103.546875 C75.82676115 105.78655609 75.82676115 105.78655609 75.953125 108 C77.44415282 110.84853076 79.41744151 112.91572365 81.625 115.25 C82.54356762 116.23251337 83.46153402 117.21558915 84.37890625 118.19921875 C85.67634766 119.58560547 85.67634766 119.58560547 87 121 C88.19520717 122.34736907 89.3837564 123.70070445 90.5625 125.0625 C93.12673912 128.01707997 95.74137557 130.91960685 98.375 133.8125 C101.44746773 137.21083552 104.38442622 140.67590523 107.25 144.25 C111.3488722 149.32342922 115.73239988 154.06069181 120.19995117 158.80541992 C124.24225403 163.12173717 127.99573491 167.60476234 131.69140625 172.22265625 C134.35279565 175.42442929 137.15463665 178.46233425 140 181.5 C144.45552694 186.25740706 148.63133774 191.15818547 152.71484375 196.2421875 C155.26091268 199.31487924 157.91687607 202.25806999 160.625 205.1875 C161.08890137 205.68950928 161.55280273 206.19151855 162.03076172 206.70874023 C162.48338379 207.19802002 162.93600586 207.6872998 163.40234375 208.19140625 C165.68091446 210.65500375 167.94937662 213.12463185 170.1875 215.625 C170.73792969 216.23601562 171.28835937 216.84703125 171.85546875 217.4765625 C173 219 173 219 173 221 C156.58147591 223.0625464 156.58147591 223.0625464 150.921875 219.80322266 C146.5641902 216.14737651 143.30907074 211.58677025 140 207 C138.51143452 205.15737037 137.01243064 203.32309207 135.5 201.5 C134.79875 200.6234375 134.0975 199.746875 133.375 198.84375 C130.53535355 195.44364701 127.53609357 192.22416246 124.5 189 C119.8533444 184.06484839 115.48073558 179.00524114 111.2421875 173.7109375 C108.7609345 170.71095565 106.15135693 167.84846349 103.5 165 C100.04835946 161.29140465 96.73477706 157.51493923 93.5625 153.5625 C90.19653338 149.37762201 86.66820359 145.41689536 83 141.5 C78.51310658 136.70814466 74.29173491 131.7774812 70.1796875 126.65625 C66.60582083 122.3010003 62.80818498 118.15029143 59 114 C43.04586775 121.62186144 25.38941158 136.8904437 18 153 C11.62203775 174.02516133 15.11409603 199.4705798 17 221 C11.39 221 5.78 221 0 221 C0 148.07 0 75.14 0 0 Z " fill="#3C4142" transform="translate(64,91)"/>
<path d="M0 0 C3.85606184 1.74303861 5.54646313 3.31150067 7.6328125 7.0859375 C9.66419424 10.72178241 12.13211107 13.56154172 15.01953125 16.578125 C19.45156747 21.27688356 23.58694376 26.13140637 27.640625 31.1640625 C31.22258202 35.51859848 35.04219762 39.65504977 38.83203125 43.828125 C44.83203125 50.49479167 44.83203125 50.49479167 44.83203125 52.828125 C45.82203125 52.828125 46.81203125 52.828125 47.83203125 52.828125 C47.83203125 50.188125 47.83203125 47.548125 47.83203125 44.828125 C51.81864323 46.3684069 53.73299955 48.88312902 56.33203125 52.203125 C59.39551522 56.149768 59.39551522 56.149768 62.94628906 59.63232422 C65.38756184 62.47499736 65.29825262 63.98327791 65.22265625 67.6875 C65.20976562 68.80253906 65.196875 69.91757812 65.18359375 71.06640625 C65.15007812 72.22527344 65.1165625 73.38414062 65.08203125 74.578125 C65.06398438 75.75246094 65.0459375 76.92679687 65.02734375 78.13671875 C64.98022245 81.0346784 64.9144443 83.93098918 64.83203125 86.828125 C52.78323446 87.88093249 52.78323446 87.88093249 48.66015625 85.65625 C46.83164286 83.82773661 45.34845702 81.92328331 43.83203125 79.828125 C42.44080227 78.13682702 41.04456028 76.44964568 39.64453125 74.765625 C38.88398438 73.82203125 38.1234375 72.8784375 37.33984375 71.90625 C34.61677086 68.56391132 31.83084366 65.28368487 29.01953125 62.015625 C28.51550781 61.4292627 28.01148438 60.84290039 27.4921875 60.23876953 C25.93979727 58.43436152 24.38614314 56.6310503 22.83203125 54.828125 C20.76798139 52.43362063 18.70514421 50.03808792 16.64453125 47.640625 C16.14421387 47.05853271 15.64389648 46.47644043 15.12841797 45.87670898 C12.08052003 42.3188222 9.09382449 38.71865884 6.14453125 35.078125 C3.21431594 31.46720632 0.20174618 27.96427198 -2.91796875 24.515625 C-3.65273437 23.7009375 -4.3875 22.88625 -5.14453125 22.046875 C-6.37366761 20.69909613 -7.61530944 19.36240044 -8.87890625 18.046875 C-10.29296875 16.515625 -10.29296875 16.515625 -12.16796875 13.828125 C-11.94963078 9.27314318 -10.00862839 7.10112399 -6.85546875 3.953125 C-5.68564453 2.75042969 -5.68564453 2.75042969 -4.4921875 1.5234375 C-2.16796875 -0.171875 -2.16796875 -0.171875 0 0 Z " fill="#107BD9" transform="translate(116.16796875,243.171875)"/>
<path d="M0 0 C1.66611905 -0.042721 3.33382885 -0.04063832 5 0 C6.54328165 1.54328165 6.12539172 2.96813157 6.12584114 5.11830139 C6.12844889 6.01142501 6.13105664 6.90454863 6.13374341 7.8247366 C6.13151268 8.8172244 6.12928196 9.8097122 6.12698364 10.83227539 C6.12932363 12.40058279 6.12932363 12.40058279 6.13171089 14.00057316 C6.13572581 17.53294818 6.13252934 21.06528085 6.12939453 24.59765625 C6.13074835 27.11831691 6.13252818 29.63897737 6.13470459 32.15963745 C6.13880506 38.31273625 6.13818558 44.46581915 6.13529195 50.61891818 C6.13303813 55.6174573 6.1327253 60.61599299 6.13381577 65.61453247 C6.133969 66.32460074 6.13412223 67.034669 6.13428011 67.76625448 C6.13459982 69.20851922 6.13492403 70.65078396 6.1352527 72.09304869 C6.13810765 85.6330322 6.13482023 99.17300895 6.12945233 112.71299136 C6.12498428 124.34349502 6.12576021 135.9739887 6.13037109 147.60449219 C6.13571658 161.09437824 6.13783296 174.58425836 6.13475883 188.07414532 C6.13444026 189.51125272 6.13412589 190.94836012 6.13381577 192.38546753 C6.13358435 193.44623232 6.13358435 193.44623232 6.13334826 194.52842671 C6.13248303 199.52384557 6.13394612 204.51926068 6.13629532 209.51467896 C6.13938466 216.23193227 6.13720094 222.94916374 6.13140106 229.66641617 C6.13007271 232.13965956 6.13046884 234.61290453 6.13266373 237.08614731 C6.13537228 240.446695 6.13199773 243.80718092 6.12698364 247.16772461 C6.13032973 248.65645631 6.13032973 248.65645631 6.13374341 250.1752634 C6.12983178 251.51494883 6.12983178 251.51494883 6.12584114 252.88169861 C6.12567879 253.65844405 6.12551644 254.4351895 6.12534916 255.23547268 C6 257 6 257 5 258 C-13.48 258 -31.96 258 -51 258 C-51.33 215.76 -51.66 173.52 -52 130 C-53.98 130.99 -53.98 130.99 -56 132 C-56 132.66 -56 133.32 -56 134 C-56.99 134 -57.98 134 -59 134 C-59.08121094 134.58265625 -59.16242188 135.1653125 -59.24609375 135.765625 C-60.22972487 138.68084261 -61.70618481 139.80510492 -64.0625 141.75 C-64.79597656 142.36359375 -65.52945312 142.9771875 -66.28515625 143.609375 C-66.85105469 144.06828125 -67.41695313 144.5271875 -68 145 C-68.66 144.67 -69.32 144.34 -70 144 C-65.05998019 138.10932346 -60.03423657 132.79644445 -54 128 C-53.2575 127.2575 -52.515 126.515 -51.75 125.75 C-51.1725 125.1725 -50.595 124.595 -50 124 C-49.67 124 -49.34 124 -49 124 C-49 167.89 -49 211.78 -49 257 C-31.51 257 -14.02 257 4 257 C3.67 172.85 3.34 88.7 3 2 C2.01 2.66 1.02 3.32 0 4 C0 2.68 0 1.36 0 0 Z " fill="#264967" transform="translate(333,73)"/>
<path d="M0 0 C0 52.14 0 104.28 0 158 C5.61 158 11.22 158 17 158 C17 158.33 17 158.66 17 159 C11.06 159.33 5.12 159.66 -1 160 C-2.08318833 156.75043502 -2.13821814 154.36469821 -2.15821838 150.94465637 C-2.1680072 149.67840927 -2.17779602 148.41216217 -2.18788147 147.10754395 C-2.19378566 145.70166053 -2.19959611 144.29577673 -2.20532227 142.88989258 C-2.21490094 141.41163357 -2.22491101 139.93337729 -2.23532104 138.4551239 C-2.26237736 134.43891823 -2.283383 130.42270079 -2.30332303 126.40645432 C-2.32517809 122.2103754 -2.35256913 118.01433275 -2.37937927 113.81828308 C-2.42931265 105.87105977 -2.47424909 97.92381633 -2.51740164 89.97655362 C-2.56676849 80.92947385 -2.62168867 71.88243049 -2.67708123 62.83538592 C-2.79091118 44.2236244 -2.89774803 25.61182854 -3 7 C-9.32411277 12.05877323 -15.05258435 16.93226369 -20.30859375 23.1171875 C-22.65992554 25.73460534 -25.25881324 27.79513239 -28 30 C-28.825 30.825 -29.65 31.65 -30.5 32.5 C-33.20634644 35.20634644 -36.03327597 37.58522463 -39 40 C-39.66 39.67 -40.32 39.34 -41 39 C-39.989375 38.175 -38.97875 37.35 -37.9375 36.5 C-35.22567979 34.1856956 -32.86422721 31.7832052 -30.5625 29.0625 C-27.58403213 25.54857724 -24.34984882 22.62338451 -20.83984375 19.65234375 C-18.26839945 17.34295747 -16.20449011 14.65669321 -14 12 C-12.22145494 10.44280225 -10.4101821 8.95167287 -8.55078125 7.4921875 C-6.80495374 5.81232324 -6.05037816 4.1630669 -5 2 C-1.7 0 -1.7 0 0 0 Z " fill="#1D77C7" transform="translate(302,154)"/>
<path d="M0 0 C0.33 0 0.66 0 1 0 C1.72737201 6.91003413 1.72737201 6.91003413 -0.30078125 9.94921875 C-1.36299304 11.11790523 -2.4585118 12.25746303 -3.58984375 13.359375 C-5.18919347 15.22011428 -5.58911122 16.60748307 -6 19 C-6.66 19 -7.32 19 -8 19 C-8.66 18.34 -9.32 17.68 -10 17 C-11.65 18.65 -13.3 20.3 -15 22 C-15.66 21.67 -16.32 21.34 -17 21 C-16.38741333 20.2589502 -16.38741333 20.2589502 -15.76245117 19.50292969 C-13.90320361 17.25272009 -12.04533962 15.00137214 -10.1875 12.75 C-9.54490234 11.97269531 -8.90230469 11.19539062 -8.24023438 10.39453125 C-7.61826172 9.64042969 -6.99628906 8.88632813 -6.35546875 8.109375 C-5.49924927 7.07248535 -5.49924927 7.07248535 -4.62573242 6.01464844 C-3.49927646 4.61871593 -2.41028292 3.19203429 -1.3527832 1.74316406 C-0.90636475 1.16791992 -0.45994629 0.59267578 0 0 Z " fill="#30404A" transform="translate(196,156)"/>
<path d="M0 0 C0.66 0.33 1.32 0.66 2 1 C0.12342437 5.60614018 -3.06704446 8.95917779 -7.4375 11.3125 C-10.61065872 13.40214111 -12.26700962 15.88202356 -14.46875 18.9375 C-18.60640798 24.51067197 -22.45760506 27.64473782 -29 30 C-29 29.34 -29 28.68 -29 28 C-28.34 28 -27.68 28 -27 28 C-26.67 27.01 -26.34 26.02 -26 25 C-24.3603279 23.63360658 -22.68889872 22.3050581 -21 21 C-19.31929309 19.34749287 -17.65452828 17.67871729 -16 16 C-10.66666667 10.66666667 -5.33333333 5.33333333 0 0 Z " fill="#1D71BC" transform="translate(286,122)"/>
<path d="M0 0 C0 3.72479524 -0.79275925 4.221118 -3.2890625 6.87109375 C-3.98386719 7.61037109 -4.67867188 8.34964844 -5.39453125 9.11132812 C-6.13058594 9.87896484 -6.86664063 10.64660156 -7.625 11.4375 C-8.33785156 12.20126953 -9.05070312 12.96503906 -9.78515625 13.75195312 C-13.6219757 17.79645363 -17.27677272 21.058589 -22 24 C-23.36244796 25.64295195 -24.69864875 27.30824337 -26 29 C-28.25 30.8125 -28.25 30.8125 -30 32 C-30.66 31.67 -31.32 31.34 -32 31 C-30.4840625 29.7625 -30.4840625 29.7625 -28.9375 28.5 C-26.22567979 26.1856956 -23.86422721 23.7832052 -21.5625 21.0625 C-18.58641927 17.55139352 -15.35592192 14.62764879 -11.84765625 11.66015625 C-10.14767255 10.13268675 -8.73674727 8.59392527 -7.3125 6.8125 C-5.08041985 4.09780792 -2.81214137 2.0890193 0 0 Z " fill="#1D71BD" transform="translate(293,162)"/>
<path d="M0 0 C22.77 0 45.54 0 69 0 C68.34 1.32 67.68 2.64 67 4 C66.505 2.515 66.505 2.515 66 1 C44.22 1 22.44 1 0 1 C0 0.67 0 0.34 0 0 Z " fill="#DFE1E0" transform="translate(195,73)"/>
<path d="M0 0 C0.33 0.66 0.66 1.32 1 2 C0.67 2.99 0.34 3.98 0 5 C-0.99 5 -1.98 5 -3 5 C-3.33 6.32 -3.66 7.64 -4 9 C-4.639375 9.103125 -5.27875 9.20625 -5.9375 9.3125 C-6.618125 9.539375 -7.29875 9.76625 -8 10 C-8.33 10.99 -8.66 11.98 -9 13 C-9.66 13 -10.32 13 -11 13 C-11.20625 13.7425 -11.4125 14.485 -11.625 15.25 C-13.39615589 18.79231177 -15.63427951 20.02446841 -19 22 C-19.66 21.67 -20.32 21.34 -21 21 C-19.54782324 19.49403892 -18.08807139 17.99537896 -16.625 16.5 C-15.81289063 15.6646875 -15.00078125 14.829375 -14.1640625 13.96875 C-12 12 -12 12 -10 12 C-9.75507813 11.42765625 -9.51015625 10.8553125 -9.2578125 10.265625 C-7.78889901 7.61975598 -6.04651756 5.85146861 -3.875 3.75 C-3.15054687 3.04359375 -2.42609375 2.3371875 -1.6796875 1.609375 C-1.12539063 1.07828125 -0.57109375 0.5471875 0 0 Z " fill="#1D6EB5" transform="translate(330,79)"/>
<path d="M0 0 C0.99 0 1.98 0 3 0 C3 2.31 3 4.62 3 7 C2.34 6.01 1.68 5.02 1 4 C-0.98 4.99 -0.98 4.99 -3 6 C-3 6.66 -3 7.32 -3 8 C-3.99 8 -4.98 8 -6 8 C-6.08121094 8.58265625 -6.16242188 9.1653125 -6.24609375 9.765625 C-7.22972487 12.68084261 -8.70618481 13.80510492 -11.0625 15.75 C-12.16271484 16.67039063 -12.16271484 16.67039063 -13.28515625 17.609375 C-13.85105469 18.06828125 -14.41695313 18.5271875 -15 19 C-15.66 18.67 -16.32 18.34 -17 18 C-12.72676252 12.90442129 -8.47572069 7.96932328 -3.25 3.8125 C-0.92512612 2.19690923 -0.92512612 2.19690923 0 0 Z " fill="#274761" transform="translate(280,199)"/>
<path d="M0 0 C0.33 0.66 0.66 1.32 1 2 C0.34 2 -0.32 2 -1 2 C-1.185625 2.66 -1.37125 3.32 -1.5625 4 C-4.48106207 10.09091215 -9.03463514 14.84186566 -15 18 C-15.33 18.66 -15.66 19.32 -16 20 C-16.99 19.67 -17.98 19.34 -19 19 C-17.014491 16.35265467 -15.1607061 14.12774074 -12.5625 12.0625 C-9.84395004 10.01307596 -9.84395004 10.01307596 -7.5 7 C-5.18544803 4.22253763 -2.8909381 2.14755402 0 0 Z " fill="#264C6C" transform="translate(250,182)"/>
<path d="M0 0 C4.36190122 1.98605715 6.73253782 4.51843289 8.8359375 8.8359375 C8.5059375 9.4959375 8.1759375 10.1559375 7.8359375 10.8359375 C5.5259375 8.1959375 3.2159375 5.5559375 0.8359375 2.8359375 C-3.8083803 3.99701695 -4.40012284 5.15068462 -7.1640625 8.8359375 C-8.1540625 9.3309375 -8.1540625 9.3309375 -9.1640625 9.8359375 C-8.8340625 12.1459375 -8.5040625 14.4559375 -8.1640625 16.8359375 C-9.4840625 15.8459375 -10.8040625 14.8559375 -12.1640625 13.8359375 C-11.68408765 9.26397363 -10.07044635 7.17455313 -6.8515625 3.9609375 C-5.68173828 2.75824219 -5.68173828 2.75824219 -4.48828125 1.53125 C-2.1640625 -0.1640625 -2.1640625 -0.1640625 0 0 Z " fill="#246AA6" transform="translate(116.1640625,243.1640625)"/>
<path d="M0 0 C0.66 0.33 1.32 0.66 2 1 C-3.56779399 9.78219051 -8.65695257 15.32847628 -18 20 C-16.4371028 15.78017757 -13.41133255 13.78476126 -10 11 C-9.443125 10.2575 -8.88625 9.515 -8.3125 8.75 C-7 7 -7 7 -4 6 C-2.60287726 4.04402816 -1.26220093 2.04563599 0 0 Z " fill="#1C71BB" transform="translate(307,101)"/>
<path d="M0 0 C0.33 0.66 0.66 1.32 1 2 C-2.7541742 6.59857812 -6.3329883 10.42897644 -11.2890625 13.703125 C-14.34008496 16.01577216 -16.6440702 19.00546652 -19 22 C-19.66 21.67 -20.32 21.34 -21 21 C-14.38651564 13.46752029 -7.59692197 6.54127028 0 0 Z " fill="#2C4154" transform="translate(252,228)"/>
<path d="M0 0 C6.36590304 5.24458586 12.13570612 11.02097322 17.9375 16.875 C18.91708237 17.85960919 19.89689837 18.843986 20.87695312 19.828125 C23.25360252 22.21648203 25.62787356 24.60715212 28 27 C27.01 27.33 26.02 27.66 25 28 C24.62488281 27.55269531 24.24976563 27.10539062 23.86328125 26.64453125 C23.35152344 26.03996094 22.83976562 25.43539062 22.3125 24.8125 C21.81363281 24.22082031 21.31476563 23.62914062 20.80078125 23.01953125 C18.09573687 19.98589145 15.18984957 17.16609669 12.2878418 14.32202148 C10.41783673 12.48876595 8.55261776 10.65072626 6.6875 8.8125 C6.04232422 8.18408203 5.39714844 7.55566406 4.73242188 6.90820312 C3.81879883 6.00424805 3.81879883 6.00424805 2.88671875 5.08203125 C2.33201904 4.53780518 1.77731934 3.9935791 1.20581055 3.43286133 C0 2 0 2 0 0 Z " fill="#254867" transform="translate(177,208)"/>
<path d="M0 0 C0.66 0.33 1.32 0.66 2 1 C1.67 1.66 1.34 2.32 1 3 C0.34 3 -0.32 3 -1 3 C-1 3.99 -1 4.98 -1 6 C-1.66 6 -2.32 6 -3 6 C-3.3403125 6.8971875 -3.3403125 6.8971875 -3.6875 7.8125 C-5 10 -5 10 -7.25 11.3125 C-10.42117118 13.25844595 -12.71942394 15.52527525 -15.3125 18.1875 C-16.19550781 19.08855469 -17.07851563 19.98960937 -17.98828125 20.91796875 C-18.65214844 21.60503906 -19.31601562 22.29210937 -20 23 C-20.66 22.67 -21.32 22.34 -22 22 C-14.74 14.74 -7.48 7.48 0 0 Z " fill="#254762" transform="translate(313,121)"/>
<path d="M0 0 C3.26008643 3.16952847 6.22237877 6.39937989 9 10 C8.01 10.495 8.01 10.495 7 11 C7.33 12.65 7.66 14.3 8 16 C6.33333333 14.33333333 4.66666667 12.66666667 3 11 C2.401875 10.566875 1.80375 10.13375 1.1875 9.6875 C-0.87629308 6.75474142 -0.17172923 3.49182767 0 0 Z " fill="#3C4B56" transform="translate(168,284)"/>
<path d="M0 0 C0.33 0.66 0.66 1.32 1 2 C-1.30764106 4.68997212 -3.64509427 7.35132333 -6 10 C-6.54785156 10.62777344 -7.09570312 11.25554687 -7.66015625 11.90234375 C-9.1875 13.5625 -9.1875 13.5625 -12 16 C-14.17578125 15.65234375 -14.17578125 15.65234375 -16 15 C-15.48050781 14.56429687 -14.96101562 14.12859375 -14.42578125 13.6796875 C-11.10994633 10.84805028 -7.92769312 8.09172765 -5.1875 4.6875 C-3 2 -3 2 0 0 Z " fill="#1B73BF" transform="translate(247,161)"/>
<path d="M0 0 C0.66 0.33 1.32 0.66 2 1 C1.319375 1.7425 0.63875 2.485 -0.0625 3.25 C-2.24085941 5.70715457 -2.24085941 5.70715457 -1.8125 7.9375 C-0.86672332 10.33831772 0.33577552 11.83958142 2.0625 13.75 C2.61035156 14.36359375 3.15820312 14.9771875 3.72265625 15.609375 C4.14417969 16.06828125 4.56570312 16.5271875 5 17 C3.68 16.67 2.36 16.34 1 16 C1 16.66 1 17.32 1 18 C-2 17 -2 17 -4 14 C-4.75447546 9.31523374 -4.61752228 5.94558099 -2 1.9375 C-1.34 1.298125 -0.68 0.65875 0 0 Z " fill="#2F4557" transform="translate(172,191)"/>
<path d="M0 0 C0.69140625 1.76953125 0.69140625 1.76953125 1 4 C-1.61597271 8.03678856 -4.82009422 10.67820752 -9.4375 11.9375 C-10.283125 11.958125 -11.12875 11.97875 -12 12 C-12 12.66 -12 13.32 -12 14 C-12.66 13.67 -13.32 13.34 -14 13 C-12.625 11 -12.625 11 -11 9 C-10.34 9 -9.68 9 -9 9 C-9 8.34 -9 7.68 -9 7 C-7.88625 6.6596875 -7.88625 6.6596875 -6.75 6.3125 C-3.48860409 4.75592468 -2.07105025 2.91481146 0 0 Z " fill="#2D404F" transform="translate(265,168)"/>
<path d="M0 0 C0.33 0.99 0.66 1.98 1 3 C0.01 3.33 -0.98 3.66 -2 4 C-2 4.66 -2 5.32 -2 6 C-3.875 8.125 -3.875 8.125 -6 10 C-6.66 10 -7.32 10 -8 10 C-8 10.66 -8 11.32 -8 12 C-9.61457079 13.43581474 -11.29219075 14.80144783 -13 16.125 C-13.928125 16.84945312 -14.85625 17.57390625 -15.8125 18.3203125 C-16.534375 18.87460938 -17.25625 19.42890625 -18 20 C-18.66 19.67 -19.32 19.34 -20 19 C-19.41992188 18.50371094 -18.83984375 18.00742188 -18.2421875 17.49609375 C-14.42336492 14.17510447 -10.78625222 10.91169934 -7.5625 7 C-6.716875 6.01 -5.87125 5.02 -5 4 C-4.34 4 -3.68 4 -3 4 C-3 3.34 -3 2.68 -3 2 C-2.01 1.34 -1.02 0.68 0 0 Z " fill="#206FB4" transform="translate(253,201)"/>
<path d="M0 0 C0.33 0.99 0.66 1.98 1 3 C0.67 3.33 0.34 3.66 0 4 C-0.23363881 5.84891946 -0.41303635 7.70488031 -0.5625 9.5625 C-0.64628906 10.57441406 -0.73007813 11.58632812 -0.81640625 12.62890625 C-0.87699219 13.41136719 -0.93757812 14.19382813 -1 15 C-2.65 13.68 -4.3 12.36 -6 11 C-5.55530671 5.96014269 -3.28656638 3.62365012 0 0 Z " fill="#3B4143" transform="translate(169,189)"/>
<path d="M0 0 C1.875 0.25 1.875 0.25 4 1 C4.6837045 2.32467746 5.34964186 3.65863633 6 5 C7.32407669 5.68486725 8.65909241 6.34870203 10 7 C11.70496537 8.62746694 13.37897032 10.28891311 15 12 C14.67 12.99 14.34 13.98 14 15 C13.60167969 14.50628906 13.20335937 14.01257813 12.79296875 13.50390625 C11.99826172 12.54291016 11.99826172 12.54291016 11.1875 11.5625 C10.66542969 10.92441406 10.14335937 10.28632813 9.60546875 9.62890625 C7.99165589 7.7451725 7.99165589 7.7451725 5 7 C4.67 6.01 4.34 5.02 4 4 C1.99983534 2.79117904 1.99983534 2.79117904 0 2 C0 1.34 0 0.68 0 0 Z " fill="#26445E" transform="translate(196,201)"/>
<path d="M0 0 C0.66 0.33 1.32 0.66 2 1 C0.26346561 2.70360012 -1.48685393 4.38683827 -3.25 6.0625 C-3.74113281 6.54783203 -4.23226562 7.03316406 -4.73828125 7.53320312 C-6.203125 8.91015625 -6.203125 8.91015625 -9 11 C-11.359375 10.80859375 -11.359375 10.80859375 -13 10 C-13 9.34 -13 8.68 -13 8 C-13.66 8 -14.32 8 -15 8 C-15 7.01 -15 6.02 -15 5 C-14.01 5.33 -13.02 5.66 -12 6 C-12 6.66 -12 7.32 -12 8 C-6.8403063 6.07776117 -3.74427866 4.19813062 0 0 Z " fill="#24669F" transform="translate(234,244)"/>
<path d="M0 0 C2.6875 -0.3125 2.6875 -0.3125 6 0 C8.6875 2.4375 8.6875 2.4375 11 5 C11.99 5.33 12.98 5.66 14 6 C14.33 7.65 14.66 9.3 15 11 C13.8944811 10.06409496 12.79064547 9.12620142 11.6875 8.1875 C11.07261719 7.66542969 10.45773438 7.14335937 9.82421875 6.60546875 C8.14575321 5.12827531 6.56117966 3.59960869 5 2 C2.53199953 3.15173355 0.95216435 4.04783565 -1 6 C-0.67 4.02 -0.34 2.04 0 0 Z " fill="#28455C" transform="translate(176,184)"/>
<path d="M0 0 C0.33 0.66 0.66 1.32 1 2 C0.34 2 -0.32 2 -1 2 C-1.4021875 3.1446875 -1.4021875 3.1446875 -1.8125 4.3125 C-2.95795247 6.90483979 -3.76415181 8.30075537 -6 10 C-6.99 10 -7.98 10 -9 10 C-7.61811547 6.78956118 -6.07578097 4.95063635 -3.375 2.75 C-2.74335938 2.22921875 -2.11171875 1.7084375 -1.4609375 1.171875 C-0.73777344 0.59179688 -0.73777344 0.59179688 0 0 Z " fill="#265988" transform="translate(250,182)"/>
<path d="M0 0 C0.33 0 0.66 0 1 0 C1.3125 2.8125 1.3125 2.8125 1 6 C-1.25 7.75 -1.25 7.75 -4 9 C-4.763125 9.391875 -5.52625 9.78375 -6.3125 10.1875 C-6.869375 10.455625 -7.42625 10.72375 -8 11 C-5.50505292 7.16847413 -2.97337987 3.48603157 0 0 Z " fill="#515453" transform="translate(196,156)"/>
<path d="M0 0 C1.32 0.66 2.64 1.32 4 2 C4 2.66 4 3.32 4 4 C3.01 4 2.02 4 1 4 C1 5.98 1 7.96 1 10 C-0.65 9.67 -2.3 9.34 -4 9 C-4.33 7.68 -4.66 6.36 -5 5 C-4.01 5.495 -4.01 5.495 -3 6 C-3 6.66 -3 7.32 -3 8 C-2.01 8 -1.02 8 0 8 C0 5.36 0 2.72 0 0 Z " fill="#246FB3" transform="translate(164,288)"/>
<path d="M0 0 C4.58913637 3.60575001 8.32167983 7.47384007 12 12 C11.67 12.66 11.34 13.32 11 14 C9.99403703 13.0479279 8.99538437 12.08812654 8 11.125 C7.443125 10.59132813 6.88625 10.05765625 6.3125 9.5078125 C5 8 5 8 5 6 C4.34 6 3.68 6 3 6 C3 5.34 3 4.68 3 4 C2.01 3.67 1.02 3.34 0 3 C0 2.01 0 1.02 0 0 Z " fill="#2270B8" transform="translate(125,254)"/>
<path d="M0 0 C0.99 0.33 1.98 0.66 3 1 C-0.3 4.3 -3.6 7.6 -7 11 C-7.33 9.68 -7.66 8.36 -8 7 C-7.01 7 -6.02 7 -5 7 C-5 6.34 -5 5.68 -5 5 C-4.34 5 -3.68 5 -3 5 C-2.67 4.01 -2.34 3.02 -2 2 C-1.34 2 -0.68 2 0 2 C0 1.34 0 0.68 0 0 Z " fill="#2073BB" transform="translate(293,138)"/>
<path d="M0 0 C1.32 0 2.64 0 4 0 C3.7834375 0.8353125 3.7834375 0.8353125 3.5625 1.6875 C2.95647335 4.04945411 2.95647335 4.04945411 2.5625 6.6875 C2.376875 7.450625 2.19125 8.21375 2 9 C1.01 9.495 1.01 9.495 0 10 C-0.38922918 8.71254964 -0.76098036 7.41980403 -1.125 6.125 C-1.43824219 5.04605469 -1.43824219 5.04605469 -1.7578125 3.9453125 C-1.83773437 3.30335938 -1.91765625 2.66140625 -2 2 C-1.34 1.34 -0.68 0.68 0 0 Z " fill="#313F4D" transform="translate(103,248)"/>
<path d="M0 0 C0.33 0.99 0.66 1.98 1 3 C-1.36292656 5.52588702 -2.66462511 6.88820837 -6 8 C-6.33 8.66 -6.66 9.32 -7 10 C-7.66 9.67 -8.32 9.34 -9 9 C-7.87895467 7.68412059 -6.75303035 6.37239647 -5.625 5.0625 C-4.99851562 4.33160156 -4.37203125 3.60070312 -3.7265625 2.84765625 C-2 1 -2 1 0 0 Z " fill="#29445B" transform="translate(262,218)"/>
<path d="M0 0 C1.32 0.33 2.64 0.66 4 1 C0.04 4.465 0.04 4.465 -4 8 C-4.66 7.67 -5.32 7.34 -6 7 C-4.02 4.69 -2.04 2.38 0 0 Z " fill="#2A4357" transform="translate(269,210)"/>
<path d="M0 0 C-1.75 3.875 -1.75 3.875 -4 5 C-3.67 7.31 -3.34 9.62 -3 12 C-4.32 11.01 -5.64 10.02 -7 9 C-6.53149863 4.78348764 -4.94559315 0 0 0 Z " fill="#216FB4" transform="translate(111,248)"/>
<path d="M0 0 C0.99 0.33 1.98 0.66 3 1 C1.63875 2.11375 1.63875 2.11375 0.25 3.25 C-2.3069423 5.37674584 -4.69110193 7.60229816 -7 10 C-7 9.01 -7 8.02 -7 7 C-6.34 7 -5.68 7 -5 7 C-4.67 5.35 -4.34 3.7 -4 2 C-2.68 2 -1.36 2 0 2 C0 1.34 0 0.68 0 0 Z " fill="#1E73BD" transform="translate(277,200)"/>
<path d="M0 0 C1.39195915 4.17587745 -0.17676781 6.13474776 -2 10 C-2.33 9.34 -2.66 8.68 -3 8 C-3.99 7.67 -4.98 7.34 -6 7 C-4.02 4.69 -2.04 2.38 0 0 Z " fill="#505558" transform="translate(110,240)"/>
<path d="M0 0 C0 0.99 0 1.98 0 3 C0.103125 3.804375 0.20625 4.60875 0.3125 5.4375 C0 8 0 8 -2.5 10.3125 C-3.7375 11.1478125 -3.7375 11.1478125 -5 12 C-4.54965877 10.37276701 -4.08944646 8.74826336 -3.625 7.125 C-3.36976562 6.22007812 -3.11453125 5.31515625 -2.8515625 4.3828125 C-2 2 -2 2 0 0 Z " fill="#3D4B57" transform="translate(113,237)"/>
<path d="M0 0 C0.66 0.33 1.32 0.66 2 1 C0.75 3.5 0.75 3.5 -1 6 C-2.32 6 -3.64 6 -5 6 C-5 6.66 -5 7.32 -5 8 C-5.66 7.67 -6.32 7.34 -7 7 C-5.625 5 -5.625 5 -4 3 C-3.34 3 -2.68 3 -2 3 C-2 2.34 -2 1.68 -2 1 C-1.34 0.67 -0.68 0.34 0 0 Z " fill="#265A89" transform="translate(258,174)"/>
<path d="M0 0 C0.33 0.99 0.66 1.98 1 3 C-0.43359375 5.04296875 -0.43359375 5.04296875 -2.4375 7.1875 C-3.09621094 7.90292969 -3.75492188 8.61835938 -4.43359375 9.35546875 C-4.95050781 9.89816406 -5.46742188 10.44085938 -6 11 C-6.66 10.67 -7.32 10.34 -8 10 C-5.36 6.7 -2.72 3.4 0 0 Z " fill="#535554" transform="translate(187,167)"/>
<path d="M0 0 C0.66 0.99 1.32 1.98 2 3 C-0.3125 5.0625 -0.3125 5.0625 -3 7 C-3.99 6.67 -4.98 6.34 -6 6 C-4.02 4.02 -2.04 2.04 0 0 Z " fill="#1C72C1" transform="translate(260,194)"/>
<path d="M0 0 C1.13199353 0.9080162 2.25532363 1.82683826 3.375 2.75 C4.00148438 3.26046875 4.62796875 3.7709375 5.2734375 4.296875 C7.08312318 6.08199481 8.00117455 7.67949644 9 10 C7.1875 9.8125 7.1875 9.8125 5 9 C3.00074102 6.15490068 1.54902322 3.1046662 0 0 Z " fill="#264B6B" transform="translate(115,270)"/>
<path d="M0 0 C0.99 0.33 1.98 0.66 3 1 C0.69 3.64 -1.62 6.28 -4 9 C-4.33 8.01 -4.66 7.02 -5 6 C-4.01 5.67 -3.02 5.34 -2 5 C-0.78130071 2.49552484 -0.78130071 2.49552484 0 0 Z " fill="#216FB5" transform="translate(266,210)"/>
<path d="M0 0 C1 3 1 3 0.375 5.0625 C-1.40232276 7.56690935 -3.1198813 8.09048883 -6 9 C-4.47291037 5.56404834 -2.40072955 2.88087546 0 0 Z " fill="#4E5151" transform="translate(169,189)"/>
<path d="M0 0 C-2.64 1.98 -5.28 3.96 -8 6 C-8 5.01 -8 4.02 -8 3 C-7.34 3 -6.68 3 -6 3 C-6 2.01 -6 1.02 -6 0 C-2.25 -1.125 -2.25 -1.125 0 0 Z " fill="#1E72BD" transform="translate(318,118)"/>
<path d="M0 0 C0.66 0.33 1.32 0.66 2 1 C-0.31 3.31 -2.62 5.62 -5 8 C-5 5 -5 5 -4 2 C-2.0625 0.75 -2.0625 0.75 0 0 Z " fill="#254A6C" transform="translate(286,167)"/>
<path d="M0 0 C0.66 0.33 1.32 0.66 2 1 C-0.46153846 5.8 -0.46153846 5.8 -3.1875 6.8125 C-3.785625 6.874375 -4.38375 6.93625 -5 7 C-4.67 6.01 -4.34 5.02 -4 4 C-3.34 4 -2.68 4 -2 4 C-2 3.01 -2 2.02 -2 1 C-1.34 0.67 -0.68 0.34 0 0 Z " fill="#245C8C" transform="translate(274,158)"/>
<path d="M0 0 C0.99 0.33 1.98 0.66 3 1 C1.02 3.31 -0.96 5.62 -3 8 C-3.33 7.34 -3.66 6.68 -4 6 C-3.67 5.34 -3.34 4.68 -3 4 C-2.34 4 -1.68 4 -1 4 C-0.67 2.68 -0.34 1.36 0 0 Z " fill="#294860" transform="translate(249,155)"/>
<path d="M0 0 C0.66 0.33 1.32 0.66 2 1 C-1.5 5.875 -1.5 5.875 -6 7 C-4.02 4.69 -2.04 2.38 0 0 Z " fill="#686969" transform="translate(120,230)"/>
<path d="M0 0 C0.33 0.99 0.66 1.98 1 3 C0.01 3.33 -0.98 3.66 -2 4 C-2 4.66 -2 5.32 -2 6 C-3.32 5.67 -4.64 5.34 -6 5 C-5.01 4.67 -4.02 4.34 -3 4 C-3 3.34 -3 2.68 -3 2 C-2.01 1.34 -1.02 0.68 0 0 Z " fill="#2168AA" transform="translate(253,201)"/>
<path d="M0 0 C1.8125 0.1875 1.8125 0.1875 4 1 C5.75 3.5625 5.75 3.5625 7 6 C6.01 6.495 6.01 6.495 5 7 C4.67 6.01 4.34 5.02 4 4 C1.99983534 2.79117904 1.99983534 2.79117904 0 2 C0 1.34 0 0.68 0 0 Z " fill="#25537A" transform="translate(196,201)"/>
</svg>
